<svg id="圖層_1" xmlns="http://www.w3.org/2000/svg" viewBox="0 0 1000 1000"><style>.st3{fill:#334f59}</style><g id="圖層_1_1_"><g id="XMLID_15_"><path id="XMLID_22_" d="M500.9 202.9s-7.2 9.8-8.1 12.3-28.5 142.3-28.5 143.2c0 1-.1 3.1 1.5 3.9 1.6.8 10.9.6 13.1 2.1.6.4 1.1 1.8.9 3.3-.3 2.5-8 71.4-8 75.2 0 7.6 7.6 25.8 8 27.8.3 2 1.6 10.7 2.1 12.8.5 2.1.1 5.5.8 6.7s18.3 9.6 18.3 9.6 15.1-8 16.9-9.8c.5-.5 1-7.3 1-7.3s2-12 2.1-13c.1-1.3 7.4-19.1 7.4-26.9 0-3.8-9-73.9-9.3-75.1-.3-1.1.2-2.6 1.6-3.3 1.4-.7 10.6-2.3 11.5-2.3s2.5-2.8 2.5-3.9c0-1.2-25.3-142.5-25.6-143.2-.4-.6-8.2-12.1-8.2-12.1z" fill="#65706d"/><linearGradient id="XMLID_10_" gradientUnits="userSpaceOnUse" x1="401.757" y1="20.669" x2="623.908" y2="207.076" gradientTransform="rotate(37.642 160.681 218.632)"><stop offset="0" stop-color="#e5eae7"/><stop offset=".806" stop-color="#bbb3b3"/><stop offset="1" stop-color="#747472"/></linearGradient><path id="XMLID_21_" d="M500.9 202.9v296.9s15.1-8 16.9-9.8c.5-.5.6-5.1 1-7.3 1.1-5.5 2-12 2.1-13 .1-1.3 7.2-18.1 7.4-26.9.1-3.8-9-73.9-9.3-75.1-.3-1.1.2-2.6 1.6-3.3 1.4-.7 10.7-2 11.5-2.3 2.5-.8 2.5-2.8 2.5-3.9 0-1.2-25.3-142.5-25.6-143.2-.3-.6-8.1-12.1-8.1-12.1z" fill="url(#XMLID_10_)"/><g id="XMLID_16_"><linearGradient id="XMLID_11_" gradientUnits="userSpaceOnUse" x1="428.934" y1="72.031" x2="530.784" y2="72.031" gradientTransform="rotate(37.642 160.681 218.632)"><stop offset="0" stop-color="#fff"/><stop offset=".806" stop-color="#bbb3b3"/><stop offset="1" stop-color="#747472"/></linearGradient><path id="XMLID_20_" d="M474.6 352.7c-.7 0-1.4-.3-1.8-.9-.5-.6-.6-1.3-.5-2l25.9-129.2c.3-1.4 1.4-2 2.4-2s2.1.6 2.3 1.9l23 129c.1.7 0 1.4-.5 2-.5.6-1.1.9-1.9.9l-48.9.3z" fill="url(#XMLID_11_)"/><path id="XMLID_17_" class="st3" d="M500.6 218.8c1 0 2 .6 2.2 1.8l23 129c.3 1.4-.8 2.7-2.2 2.7l-49 .2c-1.4 0-2.5-1.3-2.2-2.7l25.9-129.2c.3-1.2 1.3-1.8 2.3-1.8m0-.3c-1 0-2.2.6-2.5 2.1l-25.9 129.2c-.1.7 0 1.5.5 2.1.5.6 1.2.9 1.9.9l49-.2c.8 0 1.5-.3 2-.9.5-.6.7-1.4.5-2.1l-23-129c-.3-1.4-1.5-2.1-2.5-2.1z"/></g></g></g><g id="圖層_3"><g id="XMLID_7_"><linearGradient id="XMLID_18_" gradientUnits="userSpaceOnUse" x1="-50.051" y1="586.735" x2="341.242" y2="586.735" gradientTransform="rotate(-71.1 164.071 218.053)"><stop offset=".071" stop-color="#334746"/><stop offset="1" stop-color="#636867"/></linearGradient><path id="XMLID_14_" d="M500.9 559.7l-18.3-9.6-4.8-34.5s-6.7-6.8-6.2-17.9c.5-11.4 6.3-17.2 6.3-17.2l2.1-126.7 5.4-149.6s5.8-28.1 7.8-33.9 5.5-21.7 8.3-24.2c0 0 7.8 28.2 8.6 30.3s5.7 30.1 5.8 32c.1 1.9 1.3 113.8 1.6 115.4.2 1.6 4.8 155.8 4.8 155.8s6.5 7.3 6.5 17.1c0 11.4-5.6 18-5.6 18l-5.3 35.2-17 9.8z" fill="url(#XMLID_18_)"/><linearGradient id="XMLID_19_" gradientUnits="userSpaceOnUse" x1="145.596" y1="513.174" x2="145.596" y2="647.43" gradientTransform="rotate(-71.1 164.071 218.053)"><stop offset="0" stop-color="#fff"/><stop offset=".806" stop-color="#bbb3b3"/><stop offset="1" stop-color="#747472"/></linearGradient><path id="XMLID_13_" d="M500.9 559.7l-18.3-9.6-4.8-34.5s-6.7-6.8-6.2-17.9c.5-11.4 6.3-17.2 6.3-17.2l2.1-126.7 5.4-149.6s5.8-28.1 7.8-33.9 5.5-21.7 8.3-24.2l-.6 413.6z" fill="url(#XMLID_19_)"/><g id="XMLID_8_"><linearGradient id="XMLID_23_" gradientUnits="userSpaceOnUse" x1="190.131" y1="574.801" x2="182.031" y2="552.548" gradientTransform="rotate(-71.1 164.071 218.053)"><stop offset="0" stop-color="#fff"/><stop offset=".806" stop-color="#bbb3b3"/><stop offset="1" stop-color="#747472"/></linearGradient><path id="XMLID_12_" d="M488.8 431.1c-.1 0-.1-.1-.1-.1l5.9-223.7 7.1-20.7c0-.1.1-.1.1-.1.1 0 .1 0 .1.1l6.2 21 2.6 224.1v.1h-.1c-.1-.1-21.8-.7-21.8-.7z" fill="url(#XMLID_23_)"/><path id="XMLID_9_" class="st3" d="M501.7 186.6l6.2 21 2.6 224-21.8-.6 5.9-223.7 7.1-20.7m0-.3c-.1 0-.2.1-.2.2l-7.1 20.7v.1L488.5 431c0 .1.1.3.2.3l21.8.6c.1 0 .1 0 .2-.1 0 0 .1-.1.1-.2l-2.6-224v-.1l-6.2-21c-.1-.1-.2-.2-.3-.2z"/></g></g></g><g id="圖層_2"><g id="XMLID_2_"><linearGradient id="XMLID_24_" gradientUnits="userSpaceOnUse" x1="345.099" y1="-134.878" x2="345.099" y2="-104.546" gradientTransform="rotate(90 161.681 218.043)"><stop offset="0" stop-color="#a21b00"/><stop offset="1" stop-color="#1f0000"/></linearGradient><path id="XMLID_6_" d="M499.1 633.6c.2-.1.5-.1.7 0l13.2 3.9c.9.3 1.8-.6 1.6-1.5l-11.3-55.8c-.3-3.2-.9-5.5-1.6-7v-406c0-1-.7-1.8-1.5-1.8s-1.5.8-1.5 1.8l-1.5 406.3c-.7 1.5-1.3 3.6-1.7 6.5l-11.2 56c-.2.9.6 1.7 1.6 1.5l13.2-3.9z" fill="url(#XMLID_24_)"/><linearGradient id="XMLID_25_" gradientUnits="userSpaceOnUse" x1="554.54" y1="-105.793" x2="550.807" y2="-126.966" gradientTransform="rotate(90 161.681 218.043)"><stop offset="0" stop-color="#fff"/><stop offset=".806" stop-color="#bbb3b3"/><stop offset="1" stop-color="#747472"/></linearGradient><path id="XMLID_5_" d="M498 630.2l-4.5 1.5c-2.9 1-5.6-1.9-4.9-5.2l7.3-38.6c1.6-5.8 5.8-5.2 6.9 0l7.3 38.6c.7 3.2-2 6.1-4.9 5.2l-4.5-1.5c-.9-.3-1.8-.3-2.7 0z" fill="url(#XMLID_25_)"/><linearGradient id="XMLID_26_" gradientUnits="userSpaceOnUse" x1="443.031" y1="-134.762" x2="443.031" y2="-104.528" gradientTransform="rotate(90 161.681 218.043)"><stop offset="0" stop-color="#a21b00"/><stop offset="1" stop-color="#1f0000"/></linearGradient><circle id="XMLID_4_" cx="499.4" cy="499.4" r="15.1" fill="url(#XMLID_26_)"/><linearGradient id="XMLID_27_" gradientUnits="userSpaceOnUse" x1="443.031" y1="-124.503" x2="443.031" y2="-114.923" gradientTransform="rotate(90 161.681 218.043)"><stop offset="0" stop-color="#686666"/><stop offset="1" stop-color="#231815"/></linearGradient><linearGradient id="XMLID_28_" gradientUnits="userSpaceOnUse" x1="437.741" y1="-119.713" x2="448.321" y2="-119.713" gradientTransform="rotate(90 161.681 218.043)"><stop offset="0" stop-color="#818388"/><stop offset="1" stop-color="#ffffe8"/></linearGradient><circle id="XMLID_3_" cx="499.4" cy="499.4" r="4.8" fill="url(#XMLID_27_)" stroke="url(#XMLID_28_)" stroke-miterlimit="10"/></g></g></svg>